<svg xmlns="http://www.w3.org/2000/svg" width="640" height="168" viewBox="0 0 640 168">
<defs>
<clipPath id="cardClip"><rect x="0" y="0" width="640" height="168" rx="16"/></clipPath>
</defs>
<g clip-path="url(#cardClip)">
<rect x="0" y="0" width="640" height="168" fill="#FFF3F6"/>
<rect x="0" y="0" width="7" height="168" fill="#FF6F91"/>
</g>
<text x="34" y="38" font-family="Poppins, Verdana, sans-serif" font-size="22" font-weight="700" fill="#C2185B">Distributed RAG Web Scraper</text>
<text x="34" y="60" font-family="Verdana, sans-serif" font-size="14" font-weight="700" fill="#E0568B">Independently built, Forward MENA cohort</text>
<text x="34" y="82" font-family="Verdana, sans-serif" font-size="13" fill="#8B5A6B">Celery workers, a FastAPI service, and a React/Vite UI, with</text>
<text x="34" y="101" font-family="Verdana, sans-serif" font-size="13" fill="#8B5A6B">2.96x horizontal scaling and source-cited generation.</text>
<rect x="34.0" y="112.0" width="61.6" height="24" rx="12" fill="#FFD9E4"/>
<text x="64.8" y="128.0" font-family="Verdana, sans-serif" font-size="11" fill="#9A3B57" text-anchor="middle">Python</text>
<rect x="103.6" y="112.0" width="68.2" height="24" rx="12" fill="#FFD9E4"/>
<text x="137.7" y="128.0" font-family="Verdana, sans-serif" font-size="11" fill="#9A3B57" text-anchor="middle">FastAPI</text>
<rect x="179.8" y="112.0" width="61.6" height="24" rx="12" fill="#FFD9E4"/>
<text x="210.6" y="128.0" font-family="Verdana, sans-serif" font-size="11" fill="#9A3B57" text-anchor="middle">Celery</text>
<rect x="249.4" y="112.0" width="55.0" height="24" rx="12" fill="#FFD9E4"/>
<text x="276.9" y="128.0" font-family="Verdana, sans-serif" font-size="11" fill="#9A3B57" text-anchor="middle">Redis</text>
<rect x="312.4" y="112.0" width="61.6" height="24" rx="12" fill="#FFD9E4"/>
<text x="343.2" y="128.0" font-family="Verdana, sans-serif" font-size="11" fill="#9A3B57" text-anchor="middle">Ollama</text>
<rect x="382.0" y="112.0" width="114.4" height="24" rx="12" fill="#FFD9E4"/>
<text x="439.2" y="128.0" font-family="Verdana, sans-serif" font-size="11" fill="#9A3B57" text-anchor="middle">Docker Compose</text>
</svg>